<svg id="Layer_1" data-name="Layer 1" xmlns="http://www.w3.org/2000/svg" viewBox="0 0 1280 1280"><defs><style>.cls-1{fill:#39b54a;}.cls-2{fill:#ed1c24;stroke:#000;stroke-miterlimit:10;stroke-width:10px;}.cls-3{font-size:110.22px;font-family:Montserrat-Bold, Montserrat;font-weight:700;}.cls-4{letter-spacing:-0.01em;}.cls-5{letter-spacing:-0.01em;}.cls-6{letter-spacing:-0.01em;}.cls-7{letter-spacing:0em;}.cls-8{font-size:36.9px;font-family:Montserrat-Light, Montserrat;font-weight:300;}.cls-9{letter-spacing:0em;}.cls-10{letter-spacing:-0.01em;}.cls-11{letter-spacing:0em;}.cls-12{letter-spacing:-0.01em;}.cls-13{letter-spacing:0.02em;}.cls-14{letter-spacing:-0.02em;}.cls-15{letter-spacing:0em;}</style></defs><path class="cls-1" d="M430.52,753.4,482.77,783v66.28c0,6.8,4.86,12.32,10.85,12.32h115c6,0,10.85-5.52,10.85-12.32V688.55c0-37.74-24.94-69-57.94-72.78l-.88-.11c-19.1-2.17-52.92-17-66.27-32.14l-24.37-27.65c-8.2-9.31-19.1-14.43-30.7-14.43V442.92c0-27.17-19.47-49.26-43.41-49.26s-43.41,22.09-43.41,49.26V610.21c0,60.61,30.17,116.06,78,143.19ZM374.24,442.92c0-13.58,9.73-24.63,21.7-24.63s21.71,11,21.71,24.63V548c-13.24,8.69-21.71,24.88-21.71,42.66a52.49,52.49,0,0,0,12.72,34.83l55.58,63.08a10,10,0,0,0,15.35,0,13.53,13.53,0,0,0,0-17.42L424,608.11a26.23,26.23,0,0,1-6.36-17.41c0-10.42,5.81-19.76,14.47-23.23h0c7.49-3,16.36-1.22,22.57,5.82l24.37,27.65c25.17,28.55,80.14,39.29,80.25,39.33,21.94,2.49,38.48,23.25,38.48,48.28V837H504.47V775.43a12.58,12.58,0,0,0-6-11l-58.25-33c-40.7-23.1-66-69.52-66-121.16Z"/><ellipse class="cls-1" cx="850.68" cy="723.71" rx="10.85" ry="12.32"/><path class="cls-1" d="M864.79,393.66c-23.94,0-43.41,22.09-43.41,49.26v98.52c-11.6,0-22.5,5.12-30.7,14.43l-24.37,27.65c-13.35,15.15-47.17,30-66.35,32.15l-.72.09c-33.08,3.76-58,35-58,72.79V849.32c0,6.8,4.86,12.32,10.85,12.32h115c6,0,10.85-5.52,10.85-12.32V783l35.53-20.15c5.36-3,7.53-10.44,4.85-16.52s-9.2-8.55-14.56-5.51l-41.52,23.55a12.58,12.58,0,0,0-6,11V837H662.92V688.55c0-25,16.55-45.79,38.57-48.29l.72-.09c23.54-2.68,62.52-20,79.44-39.23L806,573.29c6.22-7.06,15.12-8.82,22.57-5.82h0c8.66,3.47,14.47,12.81,14.47,23.23a26.23,26.23,0,0,1-6.36,17.41l-55.58,63.08a13.53,13.53,0,0,0,0,17.42,10,10,0,0,0,15.35,0l55.58-63.08a52.49,52.49,0,0,0,12.72-34.83c0-17.78-8.47-34-21.71-42.66V442.92c0-13.58,9.74-24.63,21.71-24.63s21.7,11,21.7,24.63V610.21A150.57,150.57,0,0,1,872,674.9c-2.86,6-.91,13.45,4.35,16.7s11.86,1,14.72-4.94a177.84,177.84,0,0,0,17.13-76.45V442.92c0-27.17-19.48-49.26-43.41-49.26Z"/><polygon class="cls-2" points="768.2 381.59 687.99 381.59 687.99 301.38 576.5 301.38 576.5 381.59 496.29 381.59 496.29 493.08 576.5 493.08 576.5 573.29 687.99 573.29 687.99 493.08 768.2 493.08 768.2 381.59"/><path d="M611.77,563.05h-1.71a5.69,5.69,0,0,1,0-11.38h1.71a5.69,5.69,0,0,1,0,11.38Z"/><path d="M672.07,563.05H630a5.69,5.69,0,0,1,0-11.38h42.1a5.69,5.69,0,0,1,0,11.38Z"/><text class="cls-3" transform="translate(278.51 963.92)"><tspan class="cls-4">A</tspan><tspan x="80.9" y="0">f</tspan><tspan class="cls-5" x="125.21" y="0">f</tspan><tspan x="168.09" y="0">o</tspan><tspan class="cls-6" x="239.63" y="0">r</tspan><tspan class="cls-7" x="284.16" y="0">dHealth</tspan></text><text class="cls-8" transform="translate(400.07 1008.37)">O<tspan class="cls-9" x="30.92" y="0">n</tspan><tspan x="55.79" y="0">e li</tspan><tspan class="cls-10" x="106.55" y="0">f</tspan><tspan class="cls-11" x="118.32" y="0">e is </tspan><tspan class="cls-12" x="186.58" y="0">w</tspan><tspan x="217.83" y="0">o</tspan><tspan class="cls-13" x="240.71" y="0">r</tspan><tspan x="255.8" y="0">th a </tspan><tspan class="cls-14" x="335.79" y="0">F</tspan><tspan x="358.37" y="0">o</tspan><tspan class="cls-13" x="381.24" y="0">r</tspan><tspan x="396.33" y="0">tu</tspan><tspan class="cls-15" x="435.7" y="0">n</tspan><tspan x="460.57" y="0">e</tspan></text></svg>